HIERARCHY
ROOT Hips
{
	OFFSET 0.00000 0.00000 0.00000
	CHANNELS 6 Xposition Yposition Zposition Zrotation Yrotation Xrotation 
	JOINT LHipJoint
	{
		OFFSET 0 0 0
		CHANNELS 3 Zrotation Yrotation Xrotation
		JOINT LeftUpLeg
		{
			OFFSET 1.84395 -1.68683 0.74144
			CHANNELS 3 Zrotation Yrotation Xrotation
			JOINT LeftLeg
			{
				OFFSET 2.27037 -6.23779 0.00000
				CHANNELS 3 Zrotation Yrotation Xrotation
				JOINT LeftFoot
				{
					OFFSET 2.56918 -7.05877 0.00000
					CHANNELS 3 Zrotation Yrotation Xrotation
					JOINT LeftToeBase
					{
						OFFSET 0.22276 -0.61202 1.71784
						CHANNELS 3 Zrotation Yrotation Xrotation
						End Site
						{
							OFFSET 0.00000 -0.00000 0.91613
						}
					}
				}
			}
		}
	}
	JOINT RHipJoint
	{
		OFFSET 0 0 0
		CHANNELS 3 Zrotation Yrotation Xrotation
		JOINT RightUpLeg
		{
			OFFSET -1.76833 -1.68684 0.74144
			CHANNELS 3 Zrotation Yrotation Xrotation
			JOINT RightLeg
			{
				OFFSET -2.49360 -6.85110 0.00000
				CHANNELS 3 Zrotation Yrotation Xrotation
				JOINT RightFoot
				{
					OFFSET -2.55538 -7.02085 0.00000
					CHANNELS 3 Zrotation Yrotation Xrotation
					JOINT RightToeBase
					{
						OFFSET -0.21516 -0.59115 1.68050
						CHANNELS 3 Zrotation Yrotation Xrotation
						End Site
						{
							OFFSET -0.00000 -0.00000 0.89604
						}
					}
				}
			}
		}
	}
	JOINT LowerBack
	{
		OFFSET 0 0 0
		CHANNELS 3 Zrotation Yrotation Xrotation
		JOINT Spine
		{
			OFFSET 0.06382 1.72312 -0.19613
			CHANNELS 3 Zrotation Yrotation Xrotation
			JOINT Spine1
			{
				OFFSET -0.00055 1.73507 0.23859
				CHANNELS 3 Zrotation Yrotation Xrotation
				JOINT Neck
				{
					OFFSET 0 0 0
					CHANNELS 3 Zrotation Yrotation Xrotation
					JOINT Neck1
					{
						OFFSET 0.03638 1.65562 0.09633
						CHANNELS 3 Zrotation Yrotation Xrotation
						JOINT Head
						{
							OFFSET 0.06388 1.62807 -0.32386
							CHANNELS 3 Zrotation Yrotation Xrotation
							End Site
							{
								OFFSET 0.00995 1.67644 -0.12021
							}
						}
					}
				}
				JOINT LeftShoulder
				{
					OFFSET 0 0 0
					CHANNELS 3 Zrotation Yrotation Xrotation
					JOINT LeftArm
					{
						OFFSET 3.09648 1.42991 0.28122
						CHANNELS 3 Zrotation Yrotation Xrotation
						JOINT LeftForeArm
						{
							OFFSET 5.11878 -0.00000 -0.00000
							CHANNELS 3 Zrotation Yrotation Xrotation
							JOINT LeftHand
							{
								OFFSET 3.59971 -0.00000 0.00000
								CHANNELS 3 Zrotation Yrotation Xrotation
								JOINT LeftFingerBase
								{
									OFFSET 0 0 0
									CHANNELS 3 Zrotation Yrotation Xrotation
									JOINT LeftHandIndex1
									{
										OFFSET 0.62877 -0.00000 0.00000
										CHANNELS 3 Zrotation Yrotation Xrotation
										End Site
										{
											OFFSET 0.50693 -0.00000 0.00000
										}
									}
								}
								JOINT LThumb
								{
									OFFSET 0 0 0
									CHANNELS 3 Zrotation Yrotation Xrotation
									End Site
									{
										OFFSET 0.51467 -0.00000 0.51467
									}
								}
							}
						}
					}
				}
				JOINT RightShoulder
				{
					OFFSET 0 0 0
					CHANNELS 3 Zrotation Yrotation Xrotation
					JOINT RightArm
					{
						OFFSET -3.33565 1.14597 0.05047
						CHANNELS 3 Zrotation Yrotation Xrotation
						JOINT RightForeArm
						{
							OFFSET -5.49020 -0.00000 0.00000
							CHANNELS 3 Zrotation Yrotation Xrotation
							JOINT RightHand
							{
								OFFSET -3.20659 -0.00000 -0.00000
								CHANNELS 3 Zrotation Yrotation Xrotation
								JOINT RightFingerBase
								{
									OFFSET 0 0 0
									CHANNELS 3 Zrotation Yrotation Xrotation
									JOINT RightHandIndex1
									{
										OFFSET -0.69188 -0.00000 0.00000
										CHANNELS 3 Zrotation Yrotation Xrotation
										End Site
										{
											OFFSET -0.55781 -0.00000 0.00000
										}
									}
								}
								JOINT RThumb
								{
									OFFSET 0 0 0
									CHANNELS 3 Zrotation Yrotation Xrotation
									End Site
									{
										OFFSET -0.56633 -0.00000 0.56633
									}
								}
							}
						}
					}
				}
			}
		}
	}
}
MOTION
Frames: 14
Frame Time: .0083333
0.6906 17.4229 9.0653 0 0 0 0 0 0 -21 0 0 0 0 0 0 0 0 0 0 0 0 0 0 21 0 0 0 0 0 0 0 0 0 0 0 0 0 0 0 0 0 0 0 0 0 0 -16 0 0 21 0 0 11 0 0 0 -8 0 0 0 0 0 0 0 0 0 0 0 0 0 0 0 0 0 0 0 0 8 0 0 0 0 0 0 0 0 0 0 0 0 0 0 0 0 0
0.6906 17.4229 9.0653 -10.7211 -1.4015 8.7965 0.0000 0.0000 0.0000 -18.9863 -42.8472 28.3678 0.0686 -1.6892 -4.6475 -4.6382 43.3962 -46.6467 0.5252 4.6443 12.8967 0.0000 0.0000 0.0000 29.6362 24.6493 7.9592 -0.0000 -0.0228 0.0626 1.0721 -21.9379 -21.7939 -0.0000 0.0326 -0.0897 7.6671 0.8425 1.0554 2.9238 1.9564 -10.0649 -1.3188 0.4128 -11.2988 -7.6662 -10.1570 -7.5657 5.8554 -14.5309 23.2555 1.6411 -6.9332 9.5805 -0.0000 0.0000 0.0000 -94.0413 9.6669 -7.5954 11.1362 -18.4967 -1.8189 -0.0000 -0.0000 26.3890 17.4500 -8.7796 -2.7469 -7.1250 0.0000 -0.0000 -6.7997 20.8124 3.9676 -0.0000 0.0000 0.0000 93.1291 -8.1380 -20.6662 -12.5535 20.6295 -2.2936 0.0000 0.0000 49.4944 13.7452 -21.9637 -5.2273 7.1250 -0.0000 -0.0000 39.9616 -47.6683 -3.1102
0.6875 17.4169 9.0540 -10.7931 -1.5840 8.9939 0.0000 0.0000 0.0000 -18.5877 -42.8484 27.9730 0.0685 -1.6887 -4.6460 -4.6424 43.4021 -46.6442 0.5291 4.6613 12.9451 0.0000 0.0000 0.0000 29.5862 24.8546 7.5800 -0.0003 -0.1023 0.2810 1.0545 -21.7874 -21.6652 -0.0007 -0.1727 0.4745 7.6715 0.8991 1.1070 2.9368 2.0468 -10.1579 -1.3161 0.4509 -11.4321 -7.5737 -10.1451 -7.5510 5.7612 -14.5029 23.2184 1.6010 -6.9232 9.5471 0.0000 -0.0000 0.0000 -94.0366 9.6266 -7.7864 11.1029 -18.4458 -1.8083 -0.0000 -0.0000 26.5844 17.4914 -8.9534 -2.8078 -7.1250 0.0000 -0.0000 -6.7679 20.6295 3.9769 0.0000 -0.0000 0.0000 93.1250 -8.0624 -20.8308 -12.4848 20.5278 -2.2694 0.0000 0.0000 49.6899 13.7140 -21.9990 -5.2230 7.1250 -0.0000 -0.0000 39.9592 -47.7013 -3.1477
0.6846 17.4119 9.0427 -10.7821 -1.7612 9.2088 0.0000 0.0000 0.0000 -18.2654 -42.8568 27.5219 0.0675 -1.6767 -4.6129 -4.6668 43.4343 -46.6279 0.5274 4.6541 12.9245 0.0000 0.0000 0.0000 29.4273 25.0687 7.1723 -0.0008 -0.1806 0.4961 1.0394 -21.6612 -21.5630 -0.0028 -0.3445 0.9465 7.5680 0.9563 1.0982 2.9433 2.1220 -10.2390 -1.2586 0.4933 -11.5163 -7.5109 -10.1447 -7.5352 5.6863 -14.4904 23.1729 1.5700 -6.9211 9.5159 0.0000 -0.0000 0.0000 -94.0621 9.5993 -7.8903 11.0969 -18.4366 -1.8064 -0.0000 -0.0000 26.6998 17.4930 -9.0660 -2.8430 -7.1250 0.0000 -0.0000 -6.7655 20.5126 3.9934 0.0000 -0.0000 0.0000 93.1067 -8.0123 -20.8411 -12.4570 20.4865 -2.2597 0.0000 0.0000 49.7696 13.6722 -22.0483 -5.2176 7.1250 -0.0000 -0.0000 39.9572 -47.7470 -3.1999
0.6823 17.4074 9.0318 -10.6817 -1.8958 9.4617 0.0000 0.0000 0.0000 -18.0302 -42.9394 27.0167 0.0654 -1.6498 -4.5388 -4.6126 43.3972 -46.7394 0.5390 4.7038 13.0656 0.0000 0.0000 0.0000 29.1486 25.3080 6.7480 -0.0014 -0.2445 0.6717 1.0378 -21.6245 -21.5006 -0.0002 -0.0860 0.2363 7.3760 1.0092 1.0098 2.9293 2.1748 -10.3230 -1.1711 0.5335 -11.5570 -7.5744 -10.1655 -7.5198 5.7466 -14.5255 23.1700 1.5958 -6.9371 9.5249 0.0000 0.0000 0.0000 -94.0797 9.5938 -7.8172 11.1138 -18.4625 -1.8118 -0.0000 -0.0000 26.6153 17.4740 -9.1059 -2.8521 -7.1250 0.0000 -0.0000 -6.7788 20.4722 4.0075 0.0000 0.0000 0.0000 93.1180 -7.9720 -20.9233 -12.4741 20.5118 -2.2657 0.0000 0.0000 49.9554 13.5653 -22.0448 -5.1747 7.1250 -0.0000 -0.0000 39.8680 -47.7598 -3.2047
0.6759 17.4055 9.0315 -10.4217 -1.8765 9.9661 0.0000 0.0000 0.0000 -17.7715 -43.3316 26.2545 0.0626 -1.6142 -4.4406 -4.5270 43.3552 -46.9497 0.5610 4.7977 13.3324 0.0000 0.0000 0.0000 28.6453 25.7998 6.2400 -0.0017 -0.2636 0.7242 1.0701 -21.8637 -21.6515 -0.0004 -0.1227 0.3370 7.0054 1.0861 0.4621 2.8097 2.1944 -10.4582 -1.0867 0.5749 -11.3757 -7.5950 -10.2497 -7.5052 5.8979 -14.6821 23.1752 1.6293 -6.9967 9.5502 0.0000 -0.0000 0.0000 -93.8910 9.6581 -6.9016 11.1450 -18.5102 -1.8217 -0.0000 -0.0000 25.7734 17.7334 -9.1553 -2.9128 -7.1250 0.0000 -0.0000 -6.5924 20.4059 3.9057 0.0000 -0.0000 0.0000 93.1980 -7.8442 -21.2162 -12.4086 20.4145 -2.2428 0.0000 0.0000 49.9629 13.4821 -22.2169 -5.1798 7.1250 -0.0000 -0.0000 39.9119 -47.9104 -3.3814
0.6631 17.4018 9.0209 -9.8207 -2.1283 10.7676 0.0000 0.0000 0.0000 -17.5268 -43.8917 24.9637 0.0570 -1.5403 -4.2368 -4.3197 43.2732 -47.4932 0.6256 5.0613 14.0834 0.0000 0.0000 0.0000 27.5224 26.6542 5.2384 -0.0030 -0.3523 0.9680 1.0892 -22.0242 -21.7874 -0.0101 -0.6503 1.7869 6.1254 1.2773 -0.2216 2.5585 2.3249 -10.6980 -0.8687 0.7082 -11.2285 -7.4398 -10.3753 -7.4998 5.9768 -14.9033 23.1409 1.6041 -7.0795 9.5478 0.0000 0.0000 0.0000 -93.5510 9.7910 -5.0384 11.2692 -18.6997 -1.8613 -0.0000 -0.0000 24.1031 18.1696 -8.5867 -2.8053 -7.1250 0.0000 -0.0000 -6.2835 20.9732 3.6397 0.0000 0.0000 0.0000 93.3283 -7.6612 -21.5281 -12.2670 20.2038 -2.1936 0.0000 0.0000 49.6589 13.4264 -22.5622 -5.2334 7.1250 -0.0000 -0.0000 40.0927 -48.1957 -3.7292
0.6587 17.4054 9.0228 -9.4892 -2.2305 10.8838 0.0000 0.0000 0.0000 -17.8638 -44.0819 24.8703 0.0549 -1.5116 -4.1578 -4.2926 43.3372 -47.7173 0.6402 5.1188 14.2476 0.0000 0.0000 0.0000 27.0706 26.8366 5.1270 -0.0029 -0.3503 0.9625 1.0926 -22.0814 -21.8748 -0.0203 -0.9203 2.5295 5.6844 1.3322 -0.3840 2.4339 2.3494 -10.7187 -0.7578 0.7563 -11.1536 -7.3108 -10.4340 -7.4885 5.9194 -14.9914 23.1153 1.5553 -7.1164 9.5277 0.0000 -0.0000 0.0000 -93.4226 9.8598 -3.8586 11.4288 -18.9426 -1.9128 -0.0000 -0.0000 23.0461 18.3329 -7.2417 -2.3918 -7.1250 0.0000 -0.0000 -6.1814 22.3696 3.3829 0.0000 -0.0000 0.0000 93.4097 -7.6098 -21.5566 -12.2239 20.1396 -2.1788 0.0000 0.0000 49.5124 13.2598 -22.7239 -5.2012 7.1250 -0.0000 -0.0000 40.0632 -48.3502 -3.9018
0.6586 17.4048 9.0236 -9.4779 -2.2205 10.8935 0.0000 0.0000 0.0000 -17.8784 -44.0889 24.8701 0.0549 -1.5123 -4.1597 -4.3585 43.4051 -47.6346 0.6177 5.0299 13.9939 0.0000 0.0000 0.0000 27.0449 26.7957 5.0968 -0.0029 -0.3484 0.9573 1.0943 -22.0681 -21.8253 -0.0185 -0.8785 2.4147 5.8359 1.3795 -0.0055 2.2857 2.4585 -10.9977 -1.0197 0.7682 -11.6944 -7.2524 -10.4743 -7.2091 5.8329 -15.0719 23.2777 1.5208 -7.1647 9.5270 -0.0000 -0.0000 0.0000 -93.2314 10.3063 -3.5455 11.4768 -19.0154 -1.9284 -0.0000 -0.0000 22.9252 18.3569 -6.5583 -2.1704 -7.1250 0.0000 -0.0000 -6.1761 23.0831 3.2787 -0.0000 -0.0000 0.0000 93.6686 -8.1455 -21.5533 -12.3081 20.2650 -2.2078 0.0000 0.0000 49.4258 13.1835 -22.8824 -5.2043 7.1250 -0.0000 -0.0000 40.1059 -48.4886 -4.0653
0.6586 17.4049 9.0238 -9.4825 -2.2169 10.9082 0.0000 0.0000 0.0000 -17.8860 -44.1332 24.8996 0.0554 -1.5194 -4.1793 -4.2962 43.3706 -47.7740 0.6262 5.0638 14.0907 0.0000 0.0000 0.0000 27.0356 26.7785 5.0672 -0.0029 -0.3458 0.9500 1.0998 -22.0705 -21.7664 -0.0169 -0.8394 2.3069 5.6756 1.3081 -0.3919 2.4289 2.3147 -10.7150 -0.7552 0.7400 -11.1463 -7.1012 -10.4374 -7.4746 5.6224 -14.9494 23.0512 1.4333 -7.1114 9.4567 -0.0000 0.0000 0.0000 -93.4428 9.7177 -4.0583 11.4182 -18.9265 -1.9094 -0.0000 -0.0000 23.1692 18.3430 -6.7729 -2.2392 -7.1250 0.0000 -0.0000 -6.1821 22.8592 3.3137 -0.0000 0.0000 0.0000 93.4753 -7.6007 -21.3291 -12.2746 20.2152 -2.1963 0.0000 0.0000 49.6357 13.1771 -23.1945 -5.2684 7.1250 -0.0000 -0.0000 40.3098 -48.7390 -4.3803
0.6584 17.4057 9.0243 -9.4887 -2.2296 10.8956 0.0000 0.0000 0.0000 -17.8902 -44.1121 24.9226 0.0557 -1.5228 -4.1886 -4.2803 43.3531 -47.7916 0.6318 5.0858 14.1534 0.0000 0.0000 0.0000 27.0597 26.7931 5.1165 -0.0027 -0.3342 0.9183 1.1008 -22.0906 -21.8001 -0.0186 -0.8804 2.4198 5.6699 1.2978 -0.3681 2.4393 2.3027 -10.7045 -0.7404 0.7352 -11.1498 -6.9770 -10.4546 -7.4756 5.4216 -14.9387 23.0034 1.3508 -7.1173 9.4119 0.0000 0.0000 0.0000 -93.4540 9.7027 -4.0546 11.4272 -18.9401 -1.9123 -0.0000 -0.0000 23.0728 18.2731 -7.0499 -2.3207 -7.1250 0.0000 -0.0000 -6.2283 22.5728 3.3798 0.0000 0.0000 0.0000 93.4808 -7.6032 -21.1040 -12.2961 20.2472 -2.2037 0.0000 0.0000 49.5369 13.0051 -23.5535 -5.2731 7.1250 -0.0000 -0.0000 40.4120 -49.0519 -4.7535
0.6597 17.4087 9.0466 -10.1723 -1.8721 11.0795 0.0000 0.0000 0.0000 -16.8583 -44.0263 24.6758 0.0600 -1.5808 -4.3486 -4.5679 43.4952 -47.1061 0.5561 4.7767 13.2729 0.0000 0.0000 0.0000 27.9027 26.6096 5.1525 -0.0016 -0.2619 0.7196 1.1050 -22.1259 -21.8303 -0.0202 -0.9172 2.5209 6.4693 1.2541 -0.9135 2.6141 2.2522 -10.6879 -0.9771 0.6566 -10.7986 -6.9534 -10.4654 -7.4235 5.3694 -14.9421 22.9424 1.3340 -7.1249 9.3748 -0.0000 -0.0000 0.0000 -93.4762 9.6969 -4.0406 11.4372 -18.9553 -1.9155 -0.0000 -0.0000 23.0485 18.2962 -7.0721 -2.3311 -7.1250 0.0000 -0.0000 -6.2110 22.5485 3.3738 -0.0000 -0.0000 0.0000 93.4851 -7.6388 -20.8163 -12.3307 20.2988 -2.2157 0.0000 0.0000 49.2554 12.7602 -24.0077 -5.2643 7.1250 -0.0000 -0.0000 40.5220 -49.4516 -5.2281
0.6605 17.4092 9.0548 -10.4109 -1.7686 11.1201 0.0000 0.0000 0.0000 -16.5949 -44.0378 24.7193 0.0620 -1.6064 -4.4191 -4.5854 43.5175 -47.0932 0.5451 4.7299 13.1397 0.0000 0.0000 0.0000 28.2121 26.5696 5.1993 -0.0014 -0.2446 0.6720 1.1006 -22.1163 -21.8598 -0.0237 -0.9947 2.7343 6.7502 1.2506 -1.0716 2.6727 2.2500 -10.6684 -1.0655 0.6370 -10.6799 -6.9449 -10.4751 -7.4187 5.3707 -14.9548 22.9102 1.3325 -7.1307 9.3629 -0.0000 0.0000 0.0000 -93.4880 9.6705 -3.9515 11.4457 -18.9681 -1.9183 -0.0000 -0.0000 22.9720 18.3460 -6.8316 -2.2589 -7.1250 0.0000 -0.0000 -6.1788 22.7978 3.3207 -0.0000 0.0000 0.0000 93.4996 -7.6332 -20.6776 -12.3588 20.3406 -2.2254 0.0000 0.0000 49.0482 12.5553 -24.5343 -5.2835 7.1250 -0.0000 -0.0000 40.7207 -49.9021 -5.7781
0.6610 17.4089 9.0570 -10.3931 -1.7968 11.1126 0.0000 0.0000 0.0000 -16.7410 -44.1095 24.8826 0.0622 -1.6098 -4.4286 -4.4442 43.4495 -47.4355 0.5760 4.8602 13.5104 0.0000 0.0000 0.0000 28.2067 26.6215 5.2498 -0.0015 -0.2460 0.6760 1.0970 -22.1218 -21.9138 -0.0282 -1.0843 2.9809 6.7344 1.2502 -1.0834 2.6736 2.2455 -10.6391 -1.0554 0.6379 -10.6394 -6.9090 -10.4827 -7.4746 5.3291 -14.9556 22.8903 1.3104 -7.1310 9.3598 -0.0000 -0.0000 0.0000 -93.5146 9.6152 -3.9329 11.4533 -18.9797 -1.9208 -0.0000 -0.0000 22.9334 18.3096 -6.6230 -2.1856 -7.1250 0.0000 -0.0000 -6.2096 23.0174 3.3060 -0.0000 -0.0000 0.0000 93.5131 -7.5781 -20.6263 -12.3709 20.3586 -2.2297 0.0000 0.0000 48.9795 12.2829 -25.0351 -5.2640 7.1250 -0.0000 -0.0000 40.8507 -50.3425 -6.3058
